<?xml version="1.0" encoding="UTF-8" standalone="no"?>
<!-- Created with Inkscape (http://www.inkscape.org/) -->

<svg
   xmlns:dc="http://purl.org/dc/elements/1.1/"
   xmlns:cc="http://creativecommons.org/ns#"
   xmlns:rdf="http://www.w3.org/1999/02/22-rdf-syntax-ns#"
   xmlns:svg="http://www.w3.org/2000/svg"
   xmlns="http://www.w3.org/2000/svg"
   xmlns:sodipodi="http://sodipodi.sourceforge.net/DTD/sodipodi-0.dtd"
   xmlns:inkscape="http://www.inkscape.org/namespaces/inkscape"
   width="533.33331"
   height="112"
   viewBox="0 0 499.99996 105"
   id="svg2"
   version="1.1"
   inkscape:version="0.92.0 r"
   sodipodi:docname="lenovo.svg">
  <defs
     id="defs4" />
  <sodipodi:namedview
     id="base"
     pagecolor="#ffffff"
     bordercolor="#666666"
     borderopacity="1.0"
     inkscape:pageopacity="0.0"
     inkscape:pageshadow="2"
     inkscape:zoom="1.4"
     inkscape:cx="172.36641"
     inkscape:cy="217.38017"
     inkscape:document-units="px"
     inkscape:current-layer="layer1"
     showgrid="false"
     fit-margin-top="5"
     fit-margin-left="10"
     fit-margin-right="10"
     fit-margin-bottom="5"
     units="px"
     inkscape:window-width="2560"
     inkscape:window-height="1301"
     inkscape:window-x="0"
     inkscape:window-y="55"
     inkscape:window-maximized="1" />
  <metadata
     id="metadata7">
    <rdf:RDF>
      <cc:Work
         rdf:about="">
        <dc:format>image/svg+xml</dc:format>
        <dc:type
           rdf:resource="http://purl.org/dc/dcmitype/StillImage" />
        <dc:title />
      </cc:Work>
    </rdf:RDF>
  </metadata>
  <g
     inkscape:label="Layer 1"
     inkscape:groupmode="layer"
     id="layer1"
     transform="translate(-137.8498,-390.54123)">
    <g
       id="g23944"
       transform="matrix(1.5421564,0,0,1.5421564,148.7686,-598.51789)"
       style="fill:#ffffff">
      <g
         id="g13605"
         transform="matrix(0,2.7249422,2.7249422,0,129.07155,656.47605)"
         style="fill:#ffffff;fill-opacity:1">
        <path
           d="M 0,0 C 0,-2.127 0.986,-4.546 2.96,-6.024 L 2.956,-6.023 2.957,-6.024 0.31,-6.023 v -5.073 h 18.474 v 5.072 H 8.272 c -1.892,0 -3.903,1.467 -3.903,4.183 0,2.099 1.46,4.271 3.903,4.271 H 18.784 V 7.503 H 7.332 C 3.083,7.503 0,4.463 0,0"
           style="fill:#ffffff;fill-opacity:1;fill-rule:nonzero;stroke:none"
           id="path13607"
           inkscape:connector-curvature="0" />
      </g>
      <g
         id="g13609"
         transform="matrix(0,2.7249422,2.7249422,0,247.76404,657.32296)"
         style="fill:#ffffff;fill-opacity:1">
        <path
           d="M 0,0 12.584,-4.586 0,-9.172 v -5.795 l 18.468,7.601 v 5.559 L 0,5.794 Z"
           style="fill:#ffffff;fill-opacity:1;fill-rule:nonzero;stroke:none"
           id="path13611"
           inkscape:connector-curvature="0" />
      </g>
      <g
         id="g13613"
         transform="matrix(0,2.7249422,2.7249422,0,57.56743,672.48808)"
         style="fill:#ffffff;fill-opacity:1">
        <path
           d="m 0,0 c -1.16,0.864 -1.841,2.24 -1.841,3.902 0,1.828 1.044,3.215 2.585,3.932 L 4.421,-1.029 C 2.534,-1.271 1.058,-0.788 0,0 M 7.228,9.746 C 8.808,7.611 9.185,6.391 9.185,4.444 9.185,2.692 8.641,1.32 7.687,0.353 L 2.307,13.322 C 0.302,13.039 -1.489,12.278 -2.851,11.107 -4.83,9.403 -5.877,6.881 -5.877,3.81 c 0,-5.578 4.115,-9.784 9.55,-9.784 5.576,0 9.549,4.216 9.549,10.343 0,3.433 -1.627,6.943 -3.528,8.585 z"
           style="fill:#ffffff;fill-opacity:1;fill-rule:nonzero;stroke:none"
           id="path13615"
           inkscape:connector-curvature="0" />
      </g>
      <g
         id="g13617"
         transform="matrix(0,2.7249422,2.7249422,0,39.971116,694.96858)"
         style="fill:#ffffff;fill-opacity:1">
        <path
           d="m 0,0 v -11.53 h -19.341 v -5.142 H 4.658 L 4.658,0 Z"
           style="fill:#ffffff;fill-opacity:1;fill-rule:nonzero;stroke:none"
           id="path13619"
           inkscape:connector-curvature="0" />
      </g>
      <g
         id="g13621"
         transform="matrix(0,2.7249422,2.7249422,0,288.37412,668.31919)"
         style="fill:#ffffff;fill-opacity:1">
        <path
           d="m 0,0 c 0,-2.833 2.147,-4.89 5.201,-4.89 2.916,0 5.201,2.179 5.201,4.958 0,2.834 -2.206,4.89 -5.201,4.89 C 2.285,4.958 0,2.78 0,0 m 14.749,0 c 0,-5.548 -4.133,-9.895 -9.548,-9.895 -5.354,0 -9.548,4.377 -9.548,9.963 0,5.548 4.133,9.894 9.548,9.894 5.353,0 9.548,-4.376 9.548,-9.962"
           style="fill:#ffffff;fill-opacity:1;fill-rule:nonzero;stroke:none"
           id="path13623"
           inkscape:connector-curvature="0" />
      </g>
      <g
         id="g13625"
         transform="matrix(0,2.7249422,2.7249422,0,181.94605,668.31919)"
         style="fill:#ffffff;fill-opacity:1">
        <path
           d="m 0,0 c 0,-2.833 2.147,-4.889 5.201,-4.889 2.916,0 5.201,2.178 5.201,4.958 0,2.833 -2.206,4.889 -5.201,4.889 C 2.285,4.958 0,2.78 0,0 m 14.749,0 c 0,-5.548 -4.133,-9.894 -9.548,-9.894 -5.354,0 -9.548,4.376 -9.548,9.963 0,5.547 4.133,9.894 9.548,9.894 5.353,0 9.548,-4.377 9.548,-9.963"
           style="fill:#ffffff;fill-opacity:1;fill-rule:nonzero;stroke:none"
           id="path13627"
           inkscape:connector-curvature="0" />
      </g>
    </g>
  </g>
</svg>
